<svg xmlns="http://www.w3.org/2000/svg" viewBox="0 0 24 24">
  <path fill="currentColor" d="M19.14 12.94a7.49 7.49 0 000-1.88l1.71-1.34a.5.5 0 00.12-.64l-1.62-2.81a.5.5 0 00-.6-.22l-2 .8a7.29 7.29 0 00-1.63-.94l-.31-2.13a.5.5 0 00-.5-.43h-3.24a.5.5 0 00-.5.43l-.31 2.13a7.29 7.29 0 00-1.63.94l-2-.8a.5.5 0 00-.6.22l-1.62 2.81a.5.5 0 00.12.64l1.71 1.34a7.49 7.49 0 000 1.88l-1.71 1.34a.5.5 0 00-.12.64l1.62 2.81a.5.5 0 00.6.22l2-.8a7.29 7.29 0 001.63.94l.31 2.13a.5.5 0 00.5.43h3.24a.5.5 0 00.5-.43l.31-2.13a7.29 7.29 0 001.63-.94l2 .8a.5.5 0 00.6-.22l1.62-2.81a.5.5 0 00-.12-.64zm-7.14 2.06a3 3 0 113-3 3 3 0 01-3 3z"/>
</svg>
